<svg xmlns="http://www.w3.org/2000/svg" version="1.1" xmlns:xlink="http://www.w3.org/1999/xlink" xmlns:svgjs="http://svgjs.dev/svgjs" width="100%" height="100%" viewBox="0 0 1000 600"><rect width="1000" height="600" x="0" y="0" fill="#294d4a"/><g><circle r="166.66666666666666" cx="344.4469858805338" cy="366.66915087248515" fill="pink" transform="matrix(0.7031151242439242,0,0,0.7031151242439242,0,42.189351540495394)"/><path d="M269.6553206441551 295.7465457686616L269.6553206441551 291.66916493972485L335.01246152258597 291.66916493972485L335.01246152258597 295.7465457686616L323.22674759368863 295.7465457686616L323.22674759368863 363.4548770520998L324.952938017618 363.03821039804785L385.3696028551475 295.7465457686616L368.43507955832274 295.7465457686616L368.43507955832274 291.66916493972485L405.9350784229962 291.66916493972485L405.9350784229962 295.7465457686616L393.07793595510816 295.7465457686616L356.2326989753734 336.8774969043589L407.6612688469256 437.59177956948196L419.238649448797 437.59177956948196L419.238649448797 441.6691603984187L350.4291277225073 441.6691603984187L350.4291277225073 437.59177956948196L360.5184131313361 437.59177956948196L325.161271344644 369.228686401105L323.22674759368863 369.6751149590178L323.22674759368863 437.59177956948196L335.01246152258597 437.59177956948196L335.01246152258597 441.6691603984187L269.6553206441551 441.6691603984187L269.6553206441551 437.59177956948196L281.44103457305243 437.59177956948196L281.44103457305243 295.7465457686616L269.6553206441551 295.7465457686616Z " fill="#294d4a" transform="matrix(0.7031151242439242,0,0,0.7031151242439242,0,42.189351540495394)"/><path d="M594.4469848508847 294.7118051436987L594.4469848508847 291.6691637872525L643.2180827980083 291.6691637872525L643.2180827980083 294.7118051436987L634.423294643609 294.7118051436987L634.423294643609 345.237418909503L635.7114201813745 344.92649205555955L680.7958140031692 294.7118051436987L668.1588582964691 294.7118051436987L668.1588582964691 291.6691637872525L696.142275151376 291.6691637872525L696.142275151376 294.7118051436987L686.5479608011221 294.7118051436987L659.0531432881263 325.4047274401126L697.4304006891416 400.56018985043414L706.0697254165693 400.56018985043414L706.0697254165693 403.60283120688035L654.7223763939146 403.60283120688035L654.7223763939146 400.56018985043414L662.2512480715443 400.56018985043414L635.8668836083463 349.5459767427188L634.423294643609 349.87911265765814L634.423294643609 400.56018985043414L643.2180827980083 400.56018985043414L643.2180827980083 403.60283120688035L594.4469848508847 403.60283120688035L594.4469848508847 400.56018985043414L603.2417730052841 400.56018985043414L603.2417730052841 294.7118051436987L594.4469848508847 294.7118051436987ZM745.246509013439 366.0251000017195L745.246509013439 366.0251000017195L749.8659937005982 366.0251000017195L749.8659937005982 353.72128020995893Q749.8659937005982 338.5302824887237 748.2003141259013 333.3333622156695Q746.5124254902087 328.13644194261536 741.7152683150816 328.13644194261536L741.7152683150816 328.13644194261536Q738.850299446603 328.13644194261536 736.5183480420276 329.6466580903405Q734.2086056984479 331.15687423806565 734.2086056984479 333.79975249658463Q734.2086056984479 336.4426307551036 735.163595321274 339.15213619661046L735.163595321274 339.15213619661046L739.1612263005466 339.15213619661046Q740.4493518383122 342.52791346799614 740.4493518383122 347.23623439913916Q740.4493518383122 351.9445553302823 736.4517208590396 355.38695978465574Q732.4540898797673 358.8293642390292 726.3688071668748 358.8293642390292L726.3688071668748 358.8293642390292Q712.6213984103767 358.8293642390292 712.6213984103767 345.5483457634463L712.6213984103767 345.5483457634463Q712.6213984103767 325.8933267820236 746.0460352092934 325.8933267820236L746.0460352092934 325.8933267820236Q765.0569914218333 325.8933267820236 772.3415634285077 332.35616353184736Q779.6261354351818 338.8412093426671 779.6261354351818 356.11985879752234L779.6261354351818 356.11985879752234L779.6261354351818 388.5672969126169Q779.6261354351818 396.89569478610105 784.245620122341 396.89569478610105L784.245620122341 396.89569478610105Q789.6868400663507 396.89569478610105 790.641829689177 380.4165715271003L790.641829689177 380.4165715271003L793.0404082767404 380.57203495407197Q792.4185545688536 394.6525796255093 787.7768608206984 399.91612708155134Q783.1351670725433 405.2018835985893 772.5858630994633 405.2018835985893L772.5858630994633 405.2018835985893Q753.3972343989556 405.2018835985893 750.510056469481 393.3644540877438L750.510056469481 393.3644540877438Q748.4446137968569 399.44973680063623 744.2693103296169 402.31470566911474Q740.1162159233727 405.2018835985893 732.1209539648278 405.2018835985893L732.1209539648278 405.2018835985893Q708.4683040041327 405.2018835985893 708.4683040041327 385.85779147111003L708.4683040041327 385.85779147111003Q708.4683040041327 374.50896130217546 717.4851827684915 370.26703065194755Q726.5242705938465 366.0251000017195 745.246509013439 366.0251000017195ZM738.850299446603 385.70232804413826Q738.850299446603 394.0085168566265 739.7164528254455 396.40709544419Q740.6048152652838 398.8056740317534 743.070021035835 398.8056740317534Q745.5574358673823 398.8056740317534 747.7117147839904 394.7192068084972Q749.8659937005982 390.65494864623685 749.8659937005982 383.4592128835465L749.8659937005982 383.4592128835465L749.8659937005982 368.5791420162547L748.7555406508004 368.5791420162547Q738.850299446603 368.5791420162547 738.850299446603 383.12607696860715L738.850299446603 383.12607696860715L738.850299446603 385.70232804413826ZM800.2361440394309 380.72749838104374L800.2361440394309 380.72749838104374L800.2361440394309 330.3573480422112L791.4413558850315 330.3573480422112L791.4413558850315 327.49237917373256L800.2361440394309 327.49237917373256L800.2361440394309 306.8601615084877L829.9962857740143 299.50896231882564L829.9962857740143 327.49237917373256L850.7839668662309 327.49237917373256L850.7839668662309 330.3573480422112L829.9962857740143 330.3573480422112L829.9962857740143 384.258739079401Q829.9962857740143 391.76540169603476 831.5065019217395 395.2966423943921Q833.0167180694646 398.8056740317534 837.8138752445916 398.8056740317534Q842.6110324197184 398.8056740317534 846.2089003010637 394.0085168566265Q849.8067681824089 389.2113596814996 850.9394302932028 380.90517086901133L850.9394302932028 380.90517086901133L853.6489357347095 381.21609772295477Q852.3830192579401 392.2540010379459 846.608663398991 398.71683778776963Q840.8565166010378 405.2018835985893 827.5977071864509 405.2018835985893Q814.316688710868 405.2018835985893 807.2764163751494 399.91612708155134Q800.2361440394309 394.6525796255093 800.2361440394309 380.72749838104374ZM897.3119496527627 405.2018835985893Q876.6797319875179 405.2018835985893 866.3747276853935 394.5637433815255Q856.047514322273 383.9256031644616 856.047514322273 364.9812741349096Q856.047514322273 346.03694510535746 867.640644162163 335.9540314131926Q879.233774002053 325.8933267820236 897.156486225791 325.8933267820236L897.156486225791 325.8933267820236Q933.4460918931863 325.8933267820236 932.0025029284491 362.3383958763905L932.0025029284491 362.3383958763905L886.9181091066546 362.3383958763905L886.9181091066546 368.5791420162547Q886.9181091066546 384.258739079401 890.9157400859269 392.2540010379459Q894.9133710651993 400.2492629964907 904.8186122693967 400.2492629964907L904.8186122693967 400.2492629964907Q923.3631782010216 400.2492629964907 929.1375340599704 380.4165715271003L929.1375340599704 380.4165715271003L932.0025029284491 380.90517086901133Q928.9598615720029 392.40946446491756 921.0534358574419 398.8056740317534Q913.1470101428808 405.2018835985893 897.3119496527627 405.2018835985893L897.3119496527627 405.2018835985893ZM887.0735725336262 351.3227016223954L887.0735725336262 359.14029109297263L903.552695792627 359.14029109297263L903.552695792627 351.3227016223954Q903.552695792627 338.352610000756 902.0202705839058 333.64428906961297Q900.5100544361808 328.93596813846983 895.9571969320093 328.93596813846983Q891.3821303668421 328.93596813846983 889.2278514502341 333.9552159235563Q887.0735725336262 338.9966727696388 887.0735725336262 351.3227016223954L887.0735725336262 351.3227016223954ZM957.1875780978653 405.2018835985893Q950.2361420061304 405.2018835985893 946.793737551757 401.11541637533304Q943.3513330973835 397.0511582130727 943.3513330973835 391.21017517113586Q943.3513330973835 385.3691921291989 946.9492009787289 381.37156114992644Q950.547068860074 377.3739301706541 957.1209509148775 377.3739301706541Q963.6726239086852 377.3739301706541 967.5147914609859 380.72749838104374Q971.3347499522906 384.1032756524293 971.3347499522906 390.8104120732086Q971.3347499522906 397.51754849398793 967.7368820709453 401.3597160462886Q964.1390141896002 405.2018835985893 957.1875780978653 405.2018835985893ZM1038.4949504040674 360.5838800577099Q1038.4949504040674 344.1269658597051 1036.8958980123582 338.4414462447399Q1035.2968456206493 332.7559266297746 1030.67736093349 332.7559266297746Q1026.035667185335 332.7559266297746 1022.3489630600059 338.7523730986832Q1018.6844679956728 344.74881956759185 1018.6844679956728 354.83173325975673L1018.6844679956728 354.83173325975673L1018.6844679956728 384.1032756524293Q1018.6844679956728 390.9658755001803 1021.3939734371797 395.7630326753072Q1024.1034788786865 400.56018985043414 1029.3892353957244 400.56018985043414Q1034.6749919127626 400.56018985043414 1036.5849711584149 393.5199175147155Q1038.4949504040674 386.5018542399927 1038.4949504040674 368.91227793119407L1038.4949504040674 368.91227793119407L1038.4949504040674 360.5838800577099ZM980.4626740216293 327.49237917373256L1018.3513320807335 327.49237917373256L1018.3513320807335 340.1293348804326Q1024.5920782205976 325.8933267820236 1040.4271387107156 325.8933267820236L1040.4271387107156 325.8933267820236Q1054.1745474672136 325.8933267820236 1061.770046327831 335.7985679862208Q1069.3655451884488 345.726018251414 1069.3655451884488 365.86963657474786Q1069.3655451884488 386.0132548980817 1061.1259835589485 395.60756924833555Q1052.886421929448 405.2018835985893 1036.4295077314432 405.2018835985893L1036.4295077314432 405.2018835985893Q1028.7451726268418 405.2018835985893 1024.903005074541 403.2919043529369Q1021.0830465832362 401.3597160462886 1018.6844679956728 397.36208506701615L1018.6844679956728 397.36208506701615L1018.6844679956728 438.78198382447766L1039.2944765999218 438.78198382447766L1039.2944765999218 441.6691617539522L980.1295381066898 441.6691617539522L980.1295381066898 438.78198382447766L988.9243262610892 438.78198382447766L988.9243262610892 330.3573480422112L980.4626740216293 330.3573480422112L980.4626740216293 327.49237917373256ZM1127.5754940588545 331.9564004339201L1127.5754940588545 331.9564004339201Q1121.6456747729337 331.9564004339201 1117.1816535127462 339.6407355385216Q1112.6954231915627 347.32507064312296 1112.6954231915627 357.87437461620306L1112.6954231915627 357.87437461620306L1112.6954231915627 400.7156532774058L1124.0442533604971 400.7156532774058L1124.0442533604971 403.60283120688035L1074.1627023635758 403.60283120688035L1074.1627023635758 400.7156532774058L1082.957490517975 400.7156532774058L1082.957490517975 330.3573480422112L1074.1627023635758 330.3573480422112L1074.1627023635758 327.49237917373256L1112.6954231915627 327.49237917373256L1112.6954231915627 342.8388403219395Q1114.7830749251827 334.688114936423 1120.6906851501076 330.2907208592233Q1126.620504436028 325.8933267820236 1134.1271670526621 325.8933267820236Q1141.633829669296 325.8933267820236 1146.3643596614347 330.13525743225154Q1151.0726805925779 334.35497902148353 1151.0726805925779 342.1281503700689Q1151.0726805925779 349.87911265765814 1147.5636489552164 354.03220706390226Q1144.0324082568593 358.1853014701464 1136.770045311181 358.1853014701464Q1129.4854733045067 358.1853014701464 1126.0430688501333 353.3881442950196Q1122.6228734567558 348.59098711989265 1125.1769154712908 340.1293348804326L1125.1769154712908 340.1293348804326L1130.929062269244 340.1293348804326Q1134.9266932485166 331.9564004339201 1127.5754940588545 331.9564004339201ZM1192.181652496096 330.3573480422112L1207.9945039252182 356.4307856514658L1226.8722057717823 330.3573480422112L1215.367912175876 330.3573480422112L1215.367912175876 327.49237917373256L1239.1760255635431 327.49237917373256L1239.1760255635431 330.3573480422112L1230.8698367510547 330.3573480422112L1210.082155658838 359.78435386185544L1236.1555932680926 400.7156532774058L1244.461782080581 400.7156532774058L1244.461782080581 403.60283120688035L1191.0489903853022 403.60283120688035L1191.0489903853022 400.7156532774058L1202.3978205542367 400.7156532774058L1184.808244245438 371.93271022664436L1166.5968142287525 400.7156532774058L1177.1461182018325 400.7156532774058L1177.1461182018325 403.60283120688035L1152.0276702154042 403.60283120688035L1152.0276702154042 400.7156532774058L1162.5991832494801 400.7156532774058L1182.8982649997856 368.7346054432265L1158.6015522702075 330.3573480422112L1149.3181647738973 330.3573480422112L1149.3181647738973 327.49237917373256L1203.375019238059 327.49237917373256L1203.375019238059 330.3573480422112L1192.181652496096 330.3573480422112Z " fill="pink" transform="matrix(0.7031151242439242,0,0,0.7031151242439242,0,42.189351540495394)"/></g></svg>